<svg width="314" height="107" viewBox="0 0 314 107" fill="none" xmlns="http://www.w3.org/2000/svg">
<g clip-path="url(#clip0_204_221)">
<path d="M199.177 82.3829C194.913 82.3829 191.149 81.3073 187.885 79.1474C184.622 76.9875 182.069 73.9357 180.226 69.9832C178.384 66.0308 177.463 61.3612 177.463 55.9572C177.463 50.6056 178.384 45.9536 180.226 42.0186C182.069 38.0836 184.63 35.0405 187.921 32.8894C191.202 30.747 195.001 29.6714 199.308 29.6714C202.642 29.6714 205.274 30.2223 207.213 31.3154C209.152 32.4084 210.644 33.6501 211.679 35.0318C212.714 36.4134 213.513 37.5502 214.092 38.4333H214.276V13.092H222.505V80.9488H215.022V73.4898H214.092C213.513 74.4167 212.697 75.5884 211.626 76.9875C210.565 78.3954 209.038 79.6458 207.064 80.7389C205.09 81.8407 202.458 82.3829 199.177 82.3829ZM199.738 75.3086C202.905 75.3086 205.573 74.4779 207.757 72.8252C209.942 71.1725 211.6 68.8727 212.74 65.9258C213.881 62.979 214.443 59.5774 214.443 55.7123C214.443 51.891 213.89 48.5419 212.776 45.665C211.661 42.7881 210.012 40.5495 207.827 38.9318C205.643 37.3228 202.949 36.5183 199.738 36.5183C196.396 36.5183 193.614 37.3665 191.395 39.0629C189.175 40.7594 187.517 43.0591 186.411 45.9623C185.306 48.8567 184.753 52.1096 184.753 55.7036C184.753 59.35 185.315 62.6467 186.438 65.611C187.561 68.5754 189.237 70.9276 191.447 72.6765C193.685 74.4342 196.439 75.3086 199.738 75.3086Z" fill="#001A23"/>
<path d="M48.0637 21.8364C47.5899 17.8839 45.6861 14.8059 42.3434 12.6198C39.0007 10.4337 34.9036 9.34062 30.0431 9.34062C26.4899 9.34062 23.3929 9.90901 20.7433 11.0545C18.0937 12.2 16.032 13.774 14.558 15.7765C13.0841 17.779 12.3471 20.0613 12.3471 22.6059C12.3471 24.7396 12.8648 26.5671 13.8913 28.0887C14.9265 29.6102 16.2513 30.8782 17.8656 31.875C19.4887 32.8806 21.182 33.6939 22.9542 34.3322C24.7264 34.9705 26.3583 35.4865 27.8498 35.8712L36.0002 38.0573C38.0883 38.6082 40.422 39.3603 42.9926 40.3221C45.5633 41.284 48.0286 42.5957 50.3974 44.2484C52.7574 45.9011 54.7139 48.0172 56.2493 50.5881C57.7934 53.1677 58.5567 56.3244 58.5567 60.0758C58.5567 64.3956 57.4249 68.3043 55.1701 71.7846C52.9154 75.2736 49.6253 78.0456 45.3001 80.1006C40.9748 82.1555 35.737 83.1873 29.5781 83.1873C23.8315 83.1873 18.8658 82.2604 14.6721 80.4154C10.4784 78.5703 7.18838 75.9907 4.80202 72.6853C2.41565 69.3974 1.06455 65.5586 0.748703 61.1864H10.7767C11.0399 64.2032 12.0664 66.6953 13.8474 68.6628C15.6372 70.6303 17.9095 72.0819 20.6643 73.0351C23.4192 73.9882 26.3934 74.4604 29.5781 74.4604C33.2893 74.4604 36.6144 73.857 39.5622 72.6416C42.5101 71.4348 44.8526 69.7384 46.5722 67.5698C48.2918 65.4012 49.1604 62.8565 49.1604 59.9359C49.1604 57.2776 48.4146 55.1177 46.9319 53.4563C45.4404 51.7948 43.484 50.4394 41.0537 49.3989C38.6235 48.3583 36.0002 47.4489 33.184 46.6619L23.3139 43.8549C17.0497 42.0623 12.0839 39.5002 8.43421 36.1685C4.76692 32.8369 2.94205 28.4734 2.94205 23.0869C2.94205 18.6097 4.16156 14.701 6.60056 11.3518C9.03957 8.01146 12.3296 5.40562 16.4706 3.54306C20.6117 1.6805 25.2353 0.753586 30.3589 0.753586C35.5265 0.753586 40.1237 1.67175 44.142 3.50808C48.1602 5.34441 51.3537 7.84532 53.7225 11.0195C56.0826 14.1938 57.3284 17.7965 57.46 21.8364H48.0637Z" fill="#7AC943"/>
<path d="M67.216 13.0045C65.4087 13.0045 63.8646 12.3924 62.5749 11.1682C61.2852 9.94399 60.636 8.47492 60.636 6.75227C60.636 5.02962 61.2852 3.56055 62.5749 2.33633C63.8646 1.11211 65.4087 0.5 67.216 0.5C69.0233 0.5 70.5675 1.11211 71.8572 2.33633C73.1468 3.56055 73.7961 5.02962 73.7961 6.75227C73.7961 8.47492 73.1468 9.94399 71.8572 11.1682C70.5675 12.3924 69.0146 13.0045 67.216 13.0045ZM62.7153 83.0474V22.7109H72.366V83.0474H62.7153Z" fill="#001A23"/>
<path d="M106.626 106.5C101.967 106.5 97.958 105.932 94.6066 104.804C91.2551 103.676 88.4652 102.189 86.2455 100.353C84.0259 98.5163 82.2624 96.5576 80.9464 94.4764L88.6319 89.3259C89.5005 90.419 90.6059 91.6782 91.9482 93.0948C93.2818 94.5114 95.1154 95.7531 97.4492 96.8024C99.7829 97.8605 102.836 98.3852 106.626 98.3852C111.697 98.3852 115.882 97.2134 119.181 94.8699C122.48 92.5264 124.129 88.8537 124.129 83.8607V71.6797H123.313C122.603 72.7727 121.602 74.1194 120.304 75.7196C119.005 77.3198 117.154 78.7364 114.742 79.9781C112.329 81.2111 109.074 81.832 104.986 81.832C99.9145 81.832 95.3699 80.6864 91.3516 78.3954C87.3334 76.1044 84.1575 72.7727 81.8237 68.4005C79.49 64.0283 78.3231 58.7204 78.3231 52.4769C78.3231 46.3383 79.4549 40.978 81.7185 36.4134C83.982 31.8488 87.1316 28.3073 91.1674 25.7976C95.2032 23.288 99.8619 22.0288 105.152 22.0288C109.241 22.0288 112.496 22.6759 114.908 23.9613C117.321 25.2467 119.172 26.7071 120.471 28.3335C121.769 29.96 122.769 31.2979 123.48 32.3385H125.015V22.7196H133.789V84.4903C133.789 89.6407 132.569 93.8381 130.13 97.0822C127.691 100.326 124.419 102.705 120.313 104.226C116.198 105.739 111.636 106.5 106.626 106.5ZM107.416 73.7871C111.127 73.7871 114.259 72.9389 116.821 71.2512C119.383 69.5548 121.33 67.1238 122.664 63.9496C123.997 60.7754 124.664 56.9715 124.664 52.5381C124.664 48.2184 124.015 44.397 122.708 41.0917C121.401 37.7863 119.47 35.1892 116.909 33.3179C114.347 31.4465 111.188 30.5021 107.425 30.5021C103.503 30.5021 100.248 31.4903 97.6422 33.4753C95.0453 35.4515 93.0976 38.1098 91.7991 41.4414C90.5094 44.7731 89.8602 48.472 89.8602 52.5381C89.8602 56.7092 90.5182 60.3819 91.843 63.5736C93.159 66.7653 95.1242 69.2662 97.7211 71.0763C100.318 72.8864 103.547 73.7871 107.416 73.7871Z" fill="#001A23"/>
<path d="M148.747 73.8745H187.578V82.6189H139.044V2.17018H187.578V10.9146H148.747" fill="#7AC943"/>
<path d="M258.441 60.4955V30.2398H266.671V81.692H258.441V72.7465H257.906C256.713 75.3436 254.853 77.5472 252.326 79.3573C249.799 81.1674 246.606 82.0681 242.754 82.0681C239.561 82.0681 236.727 81.3598 234.244 79.9519C231.761 78.544 229.814 76.4104 228.392 73.5597C226.971 70.709 226.269 67.1063 226.269 62.7516V30.2398H234.499V62.2182C234.499 65.9521 235.525 68.9252 237.587 71.1463C239.649 73.3673 242.281 74.4779 245.483 74.4779C247.404 74.4779 249.361 73.9795 251.352 72.9826C253.344 71.9857 255.028 70.4467 256.388 68.383C257.766 66.3193 258.441 63.6873 258.441 60.4955Z" fill="#001A23"/>
<path d="M293.605 82.7414C288.806 82.7414 284.665 81.6133 281.199 79.3485C277.734 77.0837 275.058 73.9707 273.198 70.0095C271.329 66.0395 270.399 61.5099 270.399 56.4119C270.399 51.2264 271.364 46.6444 273.286 42.6657C275.207 38.6869 277.901 35.5739 281.357 33.3266C284.814 31.0793 288.859 29.9512 293.482 29.9512C297.088 29.9512 300.334 30.6158 303.221 31.945C306.107 33.2741 308.476 35.1367 310.327 37.5327C312.169 39.9286 313.319 42.7181 313.766 45.9098H305.896C305.3 43.5838 303.966 41.5201 301.913 39.71C299.86 37.8999 297.097 36.9993 293.623 36.9993C290.552 36.9993 287.867 37.795 285.569 39.3777C283.27 40.9605 281.48 43.1903 280.199 46.0585C278.918 48.9267 278.278 52.2933 278.278 56.1496C278.278 60.0933 278.91 63.5299 280.164 66.4592C281.419 69.3886 283.2 71.6534 285.498 73.2712C287.797 74.8889 290.508 75.7021 293.623 75.7021C295.667 75.7021 297.527 75.3436 299.194 74.6353C300.861 73.927 302.273 72.9039 303.431 71.5747C304.589 70.2456 305.414 68.6454 305.896 66.7915H313.766C313.319 69.8084 312.222 72.5191 310.485 74.9239C308.739 77.3286 306.44 79.2349 303.58 80.6427C300.703 82.0331 297.386 82.7414 293.605 82.7414Z" fill="#001A23"/>
<path d="M60.4254 39.7363H177.015V48.0785H60.4254" fill="#7AC943"/>
<path d="M60.4254 39.7363H177.015V48.0785H60.4254" stroke="white" stroke-width="3" stroke-miterlimit="10"/>
</g>
<defs>
<clipPath id="clip0_204_221">
<rect width="313" height="106" fill="white" transform="translate(0.748703 0.5)"/>
</clipPath>
</defs>
</svg>
