<svg width="519" height="176" viewBox="0 0 519 176" fill="none" xmlns="http://www.w3.org/2000/svg">
<g clip-path="url(#clip0_144_249)">
<path d="M329.023 135.956C321.953 135.956 315.712 134.171 310.3 130.584C304.888 126.998 300.655 121.931 297.6 115.368C294.545 108.806 293.018 101.053 293.018 92.0799C293.018 83.1942 294.545 75.4701 297.6 68.9365C300.655 62.4029 304.903 57.3503 310.358 53.7786C315.799 50.2214 322.098 48.4356 329.241 48.4356C334.769 48.4356 339.133 49.3503 342.348 51.1652C345.563 52.9801 348.037 55.0418 349.753 57.3358C351.47 59.6298 352.794 61.5173 353.754 62.9837H354.059V20.9075H367.705V133.575H355.296V121.191H353.754C352.794 122.73 351.441 124.675 349.666 126.998C347.906 129.336 345.374 131.412 342.101 133.227C338.828 135.056 334.464 135.956 329.023 135.956ZM329.954 124.211C335.206 124.211 339.628 122.831 343.25 120.087C346.873 117.343 349.622 113.525 351.513 108.632C353.405 103.739 354.336 98.0908 354.336 91.6733C354.336 85.3285 353.419 79.7677 351.572 74.991C349.724 70.2142 346.989 66.4973 343.367 63.8113C339.744 61.1398 335.278 59.804 329.954 59.804C324.411 59.804 319.8 61.2124 316.119 64.0291C312.439 66.8458 309.689 70.6643 307.856 75.4846C306.023 80.2904 305.107 85.6915 305.107 91.6588C305.107 97.7133 306.038 103.187 307.9 108.109C309.762 113.031 312.54 116.937 316.206 119.84C319.916 122.759 324.484 124.211 329.954 124.211Z" fill="white"/>
<path d="M78.4552 35.4265C77.6696 28.8638 74.5128 23.7531 68.9701 20.1234C63.4275 16.4936 56.6338 14.6787 48.5744 14.6787C42.6826 14.6787 37.5473 15.6225 33.154 17.5245C28.7606 19.4265 25.3419 22.0399 22.8979 25.3648C20.4539 28.6896 19.2319 32.4791 19.2319 36.7041C19.2319 40.2468 20.0902 43.2813 21.7923 45.8076C23.5089 48.3339 25.7056 50.4392 28.3824 52.0943C31.0737 53.764 33.8813 55.1143 36.82 56.1742C39.7586 57.2341 42.4644 58.0907 44.9375 58.7295L58.4522 62.3593C61.9146 63.274 65.7842 64.5227 70.0467 66.1198C74.3091 67.7168 78.397 69.8947 82.3248 72.6388C86.2381 75.3829 89.4823 78.8965 92.0281 83.1651C94.5885 87.4482 95.8541 92.6896 95.8541 98.9183C95.8541 106.091 93.9775 112.581 90.2387 118.359C86.5 124.152 81.0446 128.755 73.8727 132.167C66.7007 135.579 58.0158 137.292 47.8034 137.292C38.2747 137.292 30.0408 135.753 23.087 132.69C16.1333 129.626 10.6779 125.343 6.72099 119.855C2.76404 114.396 0.523713 108.022 0 100.762H16.6279C17.0643 105.771 18.7664 109.909 21.7196 113.176C24.6873 116.443 28.4551 118.853 33.023 120.436C37.591 122.018 42.5226 122.802 47.8034 122.802C53.957 122.802 59.4706 121.8 64.3586 119.782C69.2466 117.779 73.1308 114.962 75.9821 111.361C78.8334 107.76 80.2736 103.535 80.2736 98.686C80.2736 94.2722 79.0371 90.686 76.5785 87.9274C74.1054 85.1688 70.8613 82.9183 66.8316 81.1905C62.802 79.4628 58.4522 77.9528 53.7825 76.6461L37.4164 71.9855C27.0294 69.009 18.7955 64.755 12.7437 59.2232C6.6628 53.6914 3.6369 46.4464 3.6369 37.5027C3.6369 30.0689 5.65901 23.5789 9.70325 18.0181C13.7475 12.4718 19.2028 8.14516 26.0693 5.0526C32.9358 1.96004 40.6023 0.421021 49.0981 0.421021C57.6667 0.421021 65.2896 1.94552 71.9524 4.99452C78.6152 8.04352 83.9105 12.196 87.8384 17.4664C91.7517 22.7368 93.8174 28.7187 94.0357 35.4265H78.4552Z" fill="#7AC943"/>
<path d="M110.212 20.7623C107.216 20.7623 104.655 19.7459 102.517 17.7132C100.378 15.6806 99.3018 13.2414 99.3018 10.3811C99.3018 7.52087 100.378 5.08167 102.517 3.049C104.655 1.01633 107.216 0 110.212 0C113.209 0 115.77 1.01633 117.908 3.049C120.047 5.08167 121.123 7.52087 121.123 10.3811C121.123 13.2414 120.047 15.6806 117.908 17.7132C115.77 19.7459 113.195 20.7623 110.212 20.7623ZM102.75 137.06V36.8784H118.752V137.06H102.75Z" fill="white"/>
<path d="M175.56 176C167.836 176 161.187 175.056 155.63 173.183C150.073 171.31 145.447 168.842 141.766 165.793C138.086 162.744 135.162 159.492 132.98 156.036L145.723 147.485C147.164 149.3 148.997 151.39 151.222 153.742C153.434 156.094 156.474 158.156 160.344 159.898C164.213 161.655 169.276 162.526 175.56 162.526C183.969 162.526 190.908 160.581 196.378 156.69C201.848 152.799 204.583 146.701 204.583 138.41V118.185H203.23C202.052 120 200.393 122.236 198.24 124.893C196.087 127.55 193.018 129.902 189.017 131.964C185.016 134.011 179.619 135.042 172.84 135.042C164.432 135.042 156.896 133.14 150.233 129.336C143.57 125.532 138.304 120 134.434 112.741C130.565 105.481 128.63 96.6679 128.63 86.3013C128.63 76.1089 130.507 67.2088 134.26 59.6298C138.013 52.0509 143.236 46.1707 149.928 42.0037C156.619 37.8367 164.344 35.746 173.116 35.746C179.896 35.746 185.293 36.8204 189.293 38.9547C193.294 41.089 196.363 43.5137 198.517 46.2142C200.67 48.9148 202.328 51.1362 203.506 52.8639H206.052V36.893H220.6V139.456C220.6 148.007 218.578 154.976 214.533 160.363C210.489 165.75 205.063 169.699 198.255 172.225C191.432 174.737 183.867 176 175.56 176ZM176.87 121.684C183.023 121.684 188.217 120.276 192.465 117.474C196.713 114.657 199.942 110.621 202.153 105.35C204.365 100.08 205.47 93.7641 205.47 86.403C205.47 79.2305 204.394 72.8857 202.226 67.3975C200.059 61.9093 196.858 57.5971 192.61 54.4901C188.362 51.383 183.125 49.8149 176.884 49.8149C170.381 49.8149 164.984 51.4556 160.664 54.7514C156.358 58.0327 153.128 62.4465 150.975 67.9783C148.836 73.51 147.76 79.6516 147.76 86.403C147.76 93.3285 148.851 99.4265 151.048 104.726C153.23 110.025 156.489 114.178 160.795 117.183C165.101 120.189 170.454 121.684 176.87 121.684Z" fill="white"/>
<path d="M245.404 121.829H309.791V136.349H229.314V2.77319H309.791V17.2922H245.404" fill="#7AC943"/>
<path d="M427.292 99.6152V49.3793H440.938V134.809H427.292V119.956H426.404C424.426 124.269 421.342 127.927 417.152 130.933C412.962 133.938 407.667 135.434 401.281 135.434C395.985 135.434 391.287 134.258 387.17 131.92C383.053 129.583 379.823 126.04 377.466 121.307C375.11 116.573 373.946 110.592 373.946 103.361V49.3793H387.591V102.475C387.591 108.675 389.294 113.612 392.712 117.299C396.131 120.987 400.495 122.831 405.805 122.831C408.991 122.831 412.235 122.004 415.537 120.348C418.84 118.693 421.633 116.138 423.888 112.711C426.172 109.285 427.292 104.915 427.292 99.6152Z" fill="white"/>
<path d="M485.598 136.552C477.641 136.552 470.775 134.679 465.028 130.918C459.282 127.158 454.845 121.989 451.761 115.412C448.662 108.82 447.12 101.299 447.12 92.8348C447.12 84.225 448.72 76.617 451.906 70.0109C455.092 63.4047 459.558 58.2359 465.29 54.5045C471.022 50.7731 477.728 48.9001 485.395 48.9001C491.374 48.9001 496.757 50.0036 501.543 52.2105C506.329 54.4174 510.257 57.5099 513.326 61.4882C516.381 65.4664 518.287 70.098 519.029 75.3974H505.98C504.99 71.5354 502.779 68.1089 499.375 65.1034C495.971 62.098 491.388 60.6025 485.628 60.6025C480.536 60.6025 476.084 61.9237 472.273 64.5517C468.461 67.1796 465.494 70.882 463.37 75.6442C461.246 80.4065 460.184 85.9963 460.184 92.3992C460.184 98.9473 461.231 104.653 463.312 109.517C465.392 114.381 468.345 118.142 472.157 120.828C475.968 123.514 480.463 124.864 485.628 124.864C489.017 124.864 492.101 124.269 494.865 123.093C497.629 121.916 499.972 120.218 501.892 118.011C503.812 115.804 505.18 113.147 505.98 110.069H519.029C518.287 115.078 516.469 119.579 513.588 123.572C510.693 127.564 506.882 130.73 502.139 133.067C497.368 135.376 491.868 136.552 485.598 136.552Z" fill="white"/>
<path d="M98.9526 65.147H292.276V78.9982H98.9526" fill="#7AC943"/>
<path d="M98.9526 65.147H292.276V78.9982H98.9526" stroke="white" stroke-width="3" stroke-miterlimit="10"/>
</g>
<defs>
<clipPath id="clip0_144_249">
<rect width="519" height="176" fill="white"/>
</clipPath>
</defs>
</svg>
