<svg width="75" height="72" viewBox="0 0 75 72" fill="none" xmlns="http://www.w3.org/2000/svg">
<path fill-rule="evenodd" clip-rule="evenodd" d="M54.1232 20.2222C54.1232 28.9402 46.7583 36 37.6635 36C28.5687 36 21.2038 28.9402 21.2038 20.2222C21.2038 11.5042 28.5687 4.44444 37.6635 4.44444C46.7583 4.44444 54.1232 11.5042 54.1232 20.2222ZM37.6635 39.9444C49.031 39.9444 58.2382 31.1187 58.2382 20.2222C58.2382 9.32569 49.031 0.5 37.6635 0.5C26.2961 0.5 17.0889 9.32569 17.0889 20.2222C17.0889 31.1187 26.2961 39.9444 37.6635 39.9444ZM52.9789 46.3571C52.4797 46.2451 51.9896 46.1353 51.5117 46.0266L43.6497 67.5556H70.5829V56.7083C70.5829 54.6452 69.1343 52.4736 65.7337 50.3333C64.2231 49.3825 61.7616 48.5339 58.8774 47.7641C56.8996 47.2363 54.8752 46.7823 52.9809 46.3575L52.9789 46.3571ZM48.0231 43.6412L41.7785 60.7413V59.6667L40.5964 51.7356C41.3548 51.5825 41.9741 51.0272 42.1681 50.2838L43.1969 46.3394C43.5213 45.0947 42.5393 43.8889 41.2007 43.8889H34.1263C32.7878 43.8889 31.8055 45.0947 32.1302 46.3394L33.1589 50.2838C33.3527 51.0272 33.9722 51.5825 34.7306 51.7356L33.5747 59.4907L27.2923 43.6181L27.2495 43.5349C26.6232 42.3131 25.1992 41.6463 23.8024 41.9729C23.1002 42.137 22.3276 42.3103 21.5114 42.4933L21.5106 42.4935C19.5815 42.9264 17.4088 43.4138 15.346 43.9642C12.4382 44.7403 9.42713 45.7191 7.33473 47.0362C3.48196 49.461 0.629211 52.6714 0.629211 56.7083V71.5H74.6979V56.7083C74.6979 52.6714 71.8452 49.4612 67.9924 47.0362C65.8999 45.7191 62.8888 44.7403 59.981 43.9642C57.9182 43.4138 55.7457 42.9264 53.8167 42.4935H53.8163C52.9999 42.3103 52.2269 42.137 51.5244 41.9727C50.1276 41.6463 48.7039 42.3129 48.0776 43.5347L48.0231 43.6412ZM23.8419 46.0205L32.3658 67.5556H4.74414V56.7083C4.74414 54.6452 6.19288 52.4736 9.59337 50.3333C11.104 49.3825 13.5655 48.5339 16.4497 47.7643C18.4275 47.2363 20.4518 46.7823 22.3459 46.3577C22.8552 46.2433 23.3549 46.1313 23.8419 46.0205V46.0205Z" fill="#121212"/>
</svg>
