<svg width="58" height="73" viewBox="0 0 58 73" fill="none" xmlns="http://www.w3.org/2000/svg">
<path d="M4.25727 36.0282C1.84247 32.8365 1.39804 28.6645 3.02967 24.9347C5.4881 19.4361 6.17096 19.4361 6.58067 12.3664C6.71724 8.30777 9.9951 4.90388 14.2291 4.51114C14.2291 4.51114 16.8241 1.5 22.4238 1.5C28.9795 1.5 34.989 4.90388 36.4914 10.2716C38.1303 15.7702 36.2181 17.9958 37.8571 22.1853C39.1155 25.2867 40.9651 28.1613 40.9155 31.4434" stroke="#121212" stroke-width="3" stroke-linecap="round" stroke-linejoin="round"/>
<path d="M32.804 21.3996L32.6674 20.4833C32.6674 18.5194 20.3752 13.5444 16.278 9.61689C12.1807 13.5444 10.132 16.4247 10.132 21.3996C10.132 29.2549 15.322 35.1462 21.468 35.1462C27.614 35.1462 32.804 29.2549 32.804 21.3996V21.3996Z" stroke="#121212" stroke-width="2" stroke-miterlimit="10" stroke-linejoin="round"/>
<path d="M25.0048 20.938C25.0048 20.8494 25.0331 20.8117 25.0555 20.7902C25.0812 20.7655 25.1537 20.7138 25.3085 20.7138C25.4634 20.7138 25.5358 20.7655 25.5615 20.7902C25.584 20.8117 25.6123 20.8494 25.6123 20.938C25.6123 21.0266 25.584 21.0643 25.5615 21.0858C25.5358 21.1104 25.4634 21.1622 25.3085 21.1622C25.1537 21.1622 25.0812 21.1104 25.0555 21.0858C25.0331 21.0643 25.0048 21.0266 25.0048 20.938Z" fill="#121212" stroke="#121212" stroke-width="3.23312"/>
<path d="M17.3237 20.938C17.3237 20.8494 17.3519 20.8117 17.3744 20.7902C17.4001 20.7655 17.4725 20.7138 17.6274 20.7138C17.7822 20.7138 17.8547 20.7655 17.8804 20.7902C17.9029 20.8117 17.9311 20.8494 17.9311 20.938C17.9311 21.0266 17.9029 21.0643 17.8804 21.0858C17.8547 21.1104 17.7822 21.1622 17.6274 21.1622C17.4725 21.1622 17.4001 21.1104 17.3744 21.0858C17.3519 21.0643 17.3237 21.0266 17.3237 20.938Z" fill="#121212" stroke="#121212" stroke-width="3.23312"/>
<path d="M18.5998 28.3498C20.3754 29.2662 22.5605 29.2662 24.3361 28.3498" stroke="#121212" stroke-width="3" stroke-linecap="round" stroke-linejoin="round"/>
<path d="M26.0772 70.5642V68.0117C26.0772 64.3793 29.9206 61.4341 33.7639 61.4341C38.3343 65.0665 42.9048 65.0665 47.5791 61.4341C51.4223 61.4341 55.2656 64.3793 55.2656 68.0117V70.5642" stroke="#121212" stroke-width="4" stroke-linecap="round" stroke-linejoin="round"/>
<path d="M43.3576 49.311C43.3571 49.3075 43.3567 49.304 43.3563 49.3004C43.3564 49.2907 43.3569 49.2812 43.3577 49.2718C43.365 49.1929 43.399 49.1268 43.4369 49.0852C43.477 49.0413 43.5244 49.0194 43.5641 49.0131C43.565 49.013 43.5658 49.0128 43.5666 49.0127C43.5708 49.0121 43.575 49.0117 43.579 49.0114C43.579 49.0114 43.579 49.0114 43.579 49.0114C43.5828 49.0112 43.5866 49.0111 43.5905 49.0111C43.6008 49.0112 43.6116 49.0123 43.6226 49.0144C43.6542 49.0205 43.6878 49.0353 43.7185 49.0611C43.7616 49.0971 43.8084 49.1646 43.821 49.2552C43.822 49.2627 43.8229 49.2705 43.8234 49.2784C43.8238 49.2837 43.824 49.2889 43.8241 49.2942C43.8264 49.3904 43.7877 49.4717 43.7436 49.52C43.7113 49.5554 43.6743 49.5765 43.6403 49.5867C43.6321 49.5891 43.6241 49.5909 43.6164 49.5922C43.6164 49.5922 43.6164 49.5922 43.6164 49.5922C43.6155 49.5923 43.6147 49.5924 43.6138 49.5926C43.611 49.5923 43.6081 49.592 43.6053 49.5916C43.604 49.5914 43.6026 49.5912 43.6013 49.591C43.5977 49.5904 43.5941 49.5898 43.5905 49.5891C43.5492 49.5807 43.5061 49.5605 43.4679 49.5263C43.4218 49.4849 43.3763 49.4154 43.3601 49.3267C43.3592 49.3215 43.3583 49.3163 43.3576 49.311Z" fill="#121212" stroke="#121212" stroke-width="3.23312"/>
<path d="M38.6187 54.3447C39.8091 55.2908 41.5336 55.2908 42.724 54.3447" stroke="#121212" stroke-width="2" stroke-linecap="round" stroke-linejoin="round"/>
<path d="M37.7328 49.474C37.725 49.4714 37.7159 49.4671 37.7063 49.4603C37.6994 49.4554 37.6923 49.4492 37.6852 49.4415C37.661 49.415 37.6351 49.3645 37.6351 49.3023C37.6351 49.2971 37.6352 49.2919 37.6356 49.2865C37.6363 49.2771 37.6375 49.268 37.6392 49.2594C37.6498 49.2054 37.6784 49.1677 37.6991 49.1503C37.705 49.1454 37.7107 49.1415 37.7163 49.1384C37.7306 49.1305 37.7435 49.1279 37.7523 49.1277C37.7536 49.1276 37.7549 49.1277 37.756 49.1277L37.7523 49.186L37.7473 49.2633L37.7453 49.2942L37.7443 49.31L37.7338 49.4738C37.7334 49.4739 37.7331 49.474 37.7328 49.474ZM37.7522 49.4777L37.7522 49.4777H37.7523L37.7522 49.4777ZM37.7529 49.4676L37.7626 49.3113L37.7635 49.2955L37.7655 49.2639L37.7737 49.1317C37.7868 49.1364 37.8035 49.146 37.8198 49.1637C37.8392 49.1851 37.8597 49.2218 37.8671 49.2676C37.8685 49.2762 37.8694 49.2852 37.8698 49.2945C37.8694 49.2973 37.8689 49.3001 37.8685 49.3028C37.8676 49.3082 37.8665 49.3134 37.8653 49.3185C37.8523 49.3743 37.823 49.4162 37.797 49.4395C37.7824 49.4526 37.7673 49.4616 37.7529 49.4676ZM37.771 49.1308L37.7625 49.2638L37.7604 49.2953L37.7594 49.311L37.7523 49.4221L37.7492 49.469C37.744 49.471 37.7389 49.4725 37.734 49.4737L37.7446 49.31L37.7456 49.2942L37.7476 49.2633L37.7523 49.1903L37.7563 49.1277C37.76 49.128 37.765 49.1289 37.771 49.1308Z" fill="#121212" stroke="#121212" stroke-width="3"/>
<path d="M50.7326 48.5759C50.7446 48.7836 50.7506 48.9927 50.7508 49.2034C50.9715 54.6978 46.5138 59.3279 40.7828 59.5572C35.0517 59.3279 30.5942 54.6978 30.8149 49.2034C30.8149 49.0632 30.8175 48.9238 30.8229 48.7851" stroke="#121212" stroke-width="2" stroke-miterlimit="10"/>
<path d="M37.039 44.1631C37.7601 49.1155 43.9321 42.881 43.9321 42.881C44.7756 45.1984 50.7305 48.5761 50.7305 48.5761C52.3165 47.1687 51.5384 44.3755 51.3022 43.402C50.5178 39.4073 46.5715 36.7275 42.3799 37.3432C41.852 37.3839 41.3217 37.3839 40.7939 37.3432C37.3053 36.8471 31.5304 37.1248 29.8559 44.1809C29.0391 47.6241 30.8145 48.5757 30.8145 48.5757C30.8145 48.5757 36.5969 41.1261 37.039 44.1631Z" stroke="#121212" stroke-width="3" stroke-linecap="round" stroke-linejoin="round"/>
<path d="M2.26556 70.2696V48.1149C2.26556 43.2708 7.32253 39.3433 12.3795 39.3433C16.5 42.6623 20.6203 43.7071 24.7847 42.4781" stroke="#121212" stroke-width="3" stroke-miterlimit="10" stroke-linecap="round" stroke-linejoin="round"/>
</svg>
